<mxfile host="app.diagrams.net" agent="Mozilla/5.0 (Windows NT 10.0; Win64; x64; rv:136.0) Gecko/20100101 Firefox/136.0" version="26.1.3">
  <diagram name="Page-1" id="EIEI8d0swqKRd3KDujRh">
    <mxGraphModel dx="794" dy="414" grid="1" gridSize="10" guides="1" tooltips="1" connect="1" arrows="1" fold="1" page="1" pageScale="1" pageWidth="850" pageHeight="1100" math="0" shadow="0">
      <root>
        <mxCell id="0" />
        <mxCell id="1" parent="0" />
        <mxCell id="uP4_kpVpfsaDvXnTyyMZ-15" value="" style="group" vertex="1" connectable="0" parent="1">
          <mxGeometry x="90" y="80" width="150" height="30" as="geometry" />
        </mxCell>
        <mxCell id="uP4_kpVpfsaDvXnTyyMZ-16" value="" style="group" vertex="1" connectable="0" parent="uP4_kpVpfsaDvXnTyyMZ-15">
          <mxGeometry width="150" height="30" as="geometry" />
        </mxCell>
        <mxCell id="uP4_kpVpfsaDvXnTyyMZ-10" value="Head" style="rounded=0;whiteSpace=wrap;html=1;" vertex="1" parent="uP4_kpVpfsaDvXnTyyMZ-16">
          <mxGeometry width="50" height="30" as="geometry" />
        </mxCell>
        <mxCell id="uP4_kpVpfsaDvXnTyyMZ-12" value="Data" style="whiteSpace=wrap;html=1;" vertex="1" parent="uP4_kpVpfsaDvXnTyyMZ-16">
          <mxGeometry x="50" width="50" height="30" as="geometry" />
        </mxCell>
        <mxCell id="uP4_kpVpfsaDvXnTyyMZ-14" value="Next" style="rounded=0;whiteSpace=wrap;html=1;" vertex="1" parent="uP4_kpVpfsaDvXnTyyMZ-16">
          <mxGeometry x="100" width="50" height="30" as="geometry" />
        </mxCell>
        <mxCell id="uP4_kpVpfsaDvXnTyyMZ-18" value="" style="group" vertex="1" connectable="0" parent="1">
          <mxGeometry x="100" y="90" width="150" height="30" as="geometry" />
        </mxCell>
        <mxCell id="uP4_kpVpfsaDvXnTyyMZ-43" value="" style="group" vertex="1" connectable="0" parent="1">
          <mxGeometry x="290" y="80" width="150" height="30" as="geometry" />
        </mxCell>
        <mxCell id="uP4_kpVpfsaDvXnTyyMZ-20" value="Head" style="rounded=0;whiteSpace=wrap;html=1;" vertex="1" parent="uP4_kpVpfsaDvXnTyyMZ-43">
          <mxGeometry width="50" height="30" as="geometry" />
        </mxCell>
        <mxCell id="uP4_kpVpfsaDvXnTyyMZ-21" value="Data" style="whiteSpace=wrap;html=1;" vertex="1" parent="uP4_kpVpfsaDvXnTyyMZ-43">
          <mxGeometry x="50" width="50" height="30" as="geometry" />
        </mxCell>
        <mxCell id="uP4_kpVpfsaDvXnTyyMZ-22" value="Next" style="rounded=0;whiteSpace=wrap;html=1;" vertex="1" parent="uP4_kpVpfsaDvXnTyyMZ-43">
          <mxGeometry x="100" width="50" height="30" as="geometry" />
        </mxCell>
      </root>
    </mxGraphModel>
  </diagram>
</mxfile>
